<svg width="24" height="21" viewBox="0 0 24 21" fill="none" xmlns="http://www.w3.org/2000/svg">
<path fill-rule="evenodd" clip-rule="evenodd" d="M22.891 14.1775C23.4769 13.4892 23.4769 12.4746 22.8909 11.7863C15.9978 3.6896 8.00176 3.68959 1.10904 11.7863C0.523132 12.4745 0.523147 13.4892 1.10908 14.1775C8.00217 22.2742 15.9982 22.2742 22.891 14.1775ZM11.9999 4.05212C11.6815 4.05212 11.4234 3.79402 11.4234 3.47562V0.826503C11.4234 0.508109 11.6815 0.25 11.9999 0.25C12.3183 0.25 12.5764 0.508109 12.5764 0.826503V3.47562C12.5764 3.79402 12.3183 4.05212 11.9999 4.05212ZM2.7278 7.90893C2.4678 8.15507 2.05163 8.12082 1.83536 7.83548L0.325416 5.84326C0.140213 5.59891 0.168571 5.25433 0.391232 5.04354C0.651235 4.79739 1.06741 4.83164 1.28367 5.11698L2.79362 7.1092C2.97882 7.35356 2.95046 7.69814 2.7278 7.90893ZM7.21354 5.05631C6.89999 5.18008 6.54719 5.01244 6.44512 4.69116L5.63404 2.1383C5.54138 1.84664 5.6904 1.53304 5.97506 1.42067C6.28861 1.2969 6.64141 1.46455 6.74348 1.78582L7.55455 4.33868C7.64722 4.63034 7.4982 4.94395 7.21354 5.05631ZM21.2722 7.90798C21.0495 7.69719 21.0212 7.35261 21.2064 7.10825L22.7163 5.11603C22.9326 4.83069 23.3488 4.79644 23.6088 5.04259C23.8314 5.25338 23.8598 5.59795 23.6746 5.84231L22.1646 7.83453C21.9484 8.11987 21.5322 8.15412 21.2722 7.90798ZM11.9996 9.12269C13.904 9.12269 15.448 10.8508 15.448 12.9819C15.448 15.1132 13.9038 16.8412 11.9996 16.8412C10.0951 16.8412 8.55106 15.113 8.55106 12.9819C8.55106 10.8506 10.0953 9.12269 11.9996 9.12269ZM11.9996 10.4913C13.2286 10.4913 14.2251 11.6057 14.2251 12.9811C14.2251 13.897 13.7833 14.697 13.1256 15.1296C12.9549 15.2419 12.8029 15.017 12.9037 14.8392C13.1223 14.4539 13.249 13.9969 13.249 13.5064C13.249 12.1309 12.2532 11.0166 11.0241 11.0166C10.9006 11.0166 10.83 10.8588 10.9353 10.7944C11.2514 10.601 11.6138 10.4913 11.9996 10.4913ZM11.9996 7.83135C14.5411 7.83135 16.6019 10.1369 16.6019 12.9814C16.6019 15.8257 14.5418 18.1319 11.9996 18.1319C9.45796 18.1319 7.39765 15.8264 7.39765 12.9814C7.39765 10.1371 9.45778 7.83135 11.9996 7.83135Z" fill="#FAA70E"/>
<path d="M16.786 5.0556C16.5011 4.94321 16.352 4.62938 16.4447 4.3375L17.2556 1.78527C17.3577 1.46386 17.7106 1.29611 18.0243 1.41986C18.3092 1.53225 18.4584 1.84608 18.3656 2.13796L17.5548 4.69019C17.4527 5.0116 17.0997 5.17935 16.786 5.0556Z" fill="#FAA70E"/>
</svg>
