<svg width="161" height="100" viewBox="0 0 161 100" fill="none" xmlns="http://www.w3.org/2000/svg">
<path fill-rule="evenodd" clip-rule="evenodd" d="M26.4203 13.2118C28.0667 17.9281 28.1984 21.8912 26.9784 25.1783C25.8607 28.1897 23.5556 30.7759 19.9319 32.9013L15.3032 19.6418C13.6376 14.8703 13.5594 11.0462 14.842 8.05626C16.0257 5.2969 18.4499 3.06004 22.3037 1.41899L22.3081 1.4315L22.3126 1.44457L22.3172 1.45773L22.3219 1.47099L22.3265 1.48435L22.3312 1.4978L22.3359 1.51134L22.3407 1.52499L22.3455 1.53873L22.3503 1.55256L22.3552 1.56649L22.3601 1.58052L22.365 1.59465L22.37 1.60887L22.375 1.62319L22.38 1.63761L22.3851 1.65213L22.3902 1.66674L22.3953 1.68146L22.4005 1.69627L22.4057 1.71117L22.4109 1.72618L22.4162 1.74129L22.4215 1.75649L22.4269 1.7718L22.4322 1.7872L22.4376 1.8027L22.4431 1.8183L22.4486 1.834L22.4541 1.8498L22.4596 1.86571L22.4652 1.88171L22.4708 1.89781L22.4765 1.91401L22.4822 1.93031L22.4879 1.94672L22.4937 1.96322L22.4995 1.97983L22.5053 1.99653L22.5112 2.01334L22.5171 2.03025L22.523 2.04726L22.529 2.06437L22.535 2.08159L22.541 2.09891L22.5471 2.11633L22.5532 2.13385L22.5594 2.15148L22.5656 2.1692L22.5718 2.18704L22.5781 2.20497L22.5844 2.22301L22.5907 2.24115L22.5971 2.2594L22.6035 2.27775L22.6099 2.2962L22.6164 2.31476L22.6229 2.33342L22.6295 2.35218L22.636 2.37106L22.6427 2.39003L22.6493 2.40911L22.656 2.4283L22.6628 2.44759L22.6695 2.46699L22.6763 2.48649L22.6832 2.5061L22.6901 2.52581L22.697 2.54563L22.7039 2.56556L22.7109 2.58559L22.718 2.60573L22.725 2.62598L22.7321 2.64633L22.7393 2.66679L22.7465 2.68736L22.7537 2.70804L22.7609 2.72882L22.7682 2.74971L22.7756 2.77071L22.7829 2.79182L22.7903 2.81303L22.7978 2.83436L22.8053 2.85579L22.8128 2.87733L22.8203 2.89898L22.8279 2.92074L22.8356 2.94261L22.8432 2.96459L22.8509 2.98667L22.8587 3.00887L22.8665 3.03118L22.8743 3.05359L22.8822 3.07612L22.8901 3.09876L22.898 3.12151L22.906 3.14437L22.914 3.16734L22.9221 3.19042L22.9302 3.21361L22.9383 3.23691L22.9465 3.26033L22.9547 3.28385L22.9629 3.30749L22.9712 3.33124L22.9796 3.35511L22.9879 3.37908L22.9963 3.40317L23.0048 3.42737L23.0133 3.45168L23.0218 3.47611L23.0304 3.50065L23.039 3.5253L23.0476 3.55006L23.0563 3.57494L23.065 3.59994L23.0738 3.62504L23.0826 3.65027L23.0914 3.6756L23.1003 3.70105L23.1092 3.72662L23.1182 3.7523L23.1272 3.77809L23.1363 3.804L23.1453 3.83002L23.1545 3.85616L23.1636 3.88242L23.1728 3.90879L23.1821 3.93528L23.1914 3.96188L23.2007 3.9886L23.2101 4.01544L23.2195 4.04239L23.2289 4.06946L23.2384 4.09665L23.2479 4.12395L23.2575 4.15137L23.2671 4.17891L23.2768 4.20656L23.2865 4.23434L23.2962 4.26223L23.306 4.29024L23.3158 4.31837L23.3257 4.34661L23.3356 4.37498L23.3455 4.40346L23.3555 4.43206L23.3655 4.46078L23.3756 4.48962L23.3857 4.51858L23.3959 4.54766L23.406 4.57686L23.4163 4.60618L23.4266 4.63561L23.4369 4.66517L23.4472 4.69485L23.4576 4.72465L23.4681 4.75457L23.4786 4.78461L23.4891 4.81477L23.4997 4.84505L23.5103 4.87546L23.5209 4.90598L23.5316 4.93663L23.5424 4.9674L23.5532 4.99829L23.564 5.0293L23.5749 5.06044L23.5858 5.09169L23.5967 5.12307L23.6077 5.15458L23.6188 5.1862L23.6298 5.21795L23.641 5.24982L23.6521 5.28182L23.6633 5.31394L23.6746 5.34618L23.6859 5.37855L23.6972 5.41104L23.7086 5.44365L23.7201 5.47639L23.7315 5.50925L23.743 5.54224L23.7546 5.57536L23.7662 5.60859L23.7778 5.64196L23.7895 5.67545L23.8013 5.70906L23.813 5.7428L23.8249 5.77667L23.8367 5.81066L23.8486 5.84478L23.8606 5.87902L23.8726 5.91339L23.8846 5.94789L23.8967 5.98251L23.9089 6.01726L23.921 6.05214L23.9333 6.08715L23.9455 6.12228L23.9578 6.15754L23.9702 6.19293L23.9826 6.22845L23.995 6.26409L24.0075 6.29986L24.02 6.33577L24.0326 6.3718L24.0452 6.40795L24.0579 6.44424L24.0706 6.48066L24.0834 6.5172L24.0962 6.55388L24.109 6.59068L24.1219 6.62762L24.1349 6.66468L24.1478 6.70188L24.1609 6.7392L24.1739 6.77666L24.1871 6.81424L24.2002 6.85196L24.2134 6.88981L24.2267 6.92779L24.24 6.9659L24.2534 7.00414L24.2667 7.04251L24.2802 7.08101L24.2937 7.11965L24.3072 7.15842L24.3208 7.19732L24.3344 7.23635L24.3481 7.27552L24.3618 7.31481L24.3756 7.35424L24.3894 7.39381L24.4032 7.4335L24.4171 7.47333L24.4311 7.5133L24.4451 7.55339L24.4591 7.59363L24.4732 7.63399L24.4874 7.67449L24.5015 7.71512L24.5158 7.75589L24.5301 7.79679L24.5444 7.83783L24.5588 7.879L24.5732 7.92031L24.5876 7.96175L24.6022 8.00333L24.6167 8.04504L24.6313 8.08689L24.646 8.12888L24.6607 8.171L24.6754 8.21326L24.6902 8.25565L24.7051 8.29818L24.72 8.34085L24.7349 8.38365L24.7499 8.42659L24.7649 8.46967L24.78 8.51289L24.7952 8.55624L24.8103 8.59973L24.8256 8.64336L24.8409 8.68713L24.8562 8.73103L24.8716 8.77508L24.887 8.81926L24.9024 8.86358L24.918 8.90804L24.9335 8.95264L24.9492 8.99738L24.9648 9.04225L24.9805 9.08727L24.9963 9.13243L25.0121 9.17772L25.028 9.22316L25.0439 9.26874L25.0598 9.31445L25.0758 9.36031L25.0919 9.40631L25.108 9.45245L25.1242 9.49872L25.1404 9.54515L25.1566 9.59171L25.1729 9.63841L25.1893 9.68526L25.2057 9.73224L25.2221 9.77937L25.2386 9.82664L25.2552 9.87405L25.2718 9.92161L25.2884 9.96931L25.3051 10.0171L25.3219 10.0651L25.3387 10.1133L25.3555 10.1615L25.3724 10.2099L25.3894 10.2585L25.4064 10.3072L25.4234 10.356L25.4405 10.405L25.4577 10.4542L25.4749 10.5034L25.4921 10.5529L25.5094 10.6024L25.5268 10.6521L25.5442 10.702L25.5617 10.752L25.5792 10.8021L25.5967 10.8524L25.6143 10.9029L25.632 10.9535L25.6497 11.0042L25.6674 11.0551L25.6853 11.1061L25.7031 11.1573L25.721 11.2086L25.739 11.26L25.757 11.3116L25.7751 11.3634L25.7932 11.4153L25.8114 11.4674L25.8296 11.5196L25.8479 11.5719L25.8662 11.6244L25.8846 11.677L25.903 11.7298L25.9215 11.7828L25.94 11.8359L25.9586 11.8891L25.9772 11.9425L25.9959 11.996L26.0147 12.0497L26.0334 12.1035L26.0523 12.1575L26.0712 12.2117L26.0901 12.2659L26.1091 12.3204L26.1282 12.375L26.1473 12.4297L26.1665 12.4846L26.1857 12.5396L26.2049 12.5948L26.2242 12.6501L26.2436 12.7056L26.263 12.7613L26.2825 12.817L26.302 12.873L26.3216 12.9291L26.3413 12.9853L26.3609 13.0417L26.3807 13.0983L26.4005 13.155L26.4203 13.2118ZM19.3785 34.3493C19.6817 34.1888 19.9775 34.0252 20.266 33.8585C28.2659 29.2358 30.629 22.2353 27.3553 12.857L23.2322 1.04569L22.9026 0.101562L22.9007 0.102281C22.5842 0.22242 22.2753 0.346389 21.9739 0.474187C13.5998 4.02516 11.0646 10.5326 14.3683 19.9966L19.0463 33.3975L19.3785 34.3493ZM10.0075 42.4319V82.3332H32.3347V42.4319C32.3347 39.0239 30.2062 36.7731 27.658 36.7731H14.684C12.1359 36.7731 10.0075 39.023 10.0075 42.4319ZM9.00752 82.3332V42.4319C9.00752 38.6263 11.4399 35.7731 14.684 35.7731H27.658C30.9023 35.7731 33.3347 38.6273 33.3347 42.4319V82.3332C33.3347 82.8855 32.887 83.3332 32.3347 83.3332H10.0075C9.45524 83.3332 9.00752 82.8855 9.00752 82.3332ZM11.6867 98.0963H30.6077C35.5889 98.0963 39.947 93.5076 40.3839 87.4137H1.91053C2.34739 93.5076 6.70556 98.0963 11.6867 98.0963ZM30.6077 99.0963H11.6867C5.88317 99.0963 1.10917 93.66 0.883088 86.9143C0.873838 86.6383 1.09857 86.4137 1.37471 86.4137H40.9197C41.1959 86.4137 41.4206 86.6383 41.4113 86.9143C41.1852 93.66 36.4112 99.0963 30.6077 99.0963Z" fill="#1352CB"/>
<mask id="path-2-inside-1_4512_126890" fill="white">
<path fill-rule="evenodd" clip-rule="evenodd" d="M67.4759 11.247C69.511 17.0769 67.9156 21.3754 62.6898 24.1424L59.6837 15.5308C57.63 9.64762 59.3369 5.66862 64.8043 3.59375L67.4759 11.247ZM59.2666 99.0437H67.3756C74.8012 99.0437 80.6653 92.3296 80.8843 83.6917C80.8913 83.4156 80.6668 83.1904 80.3906 83.1904H46.2516C45.9755 83.1904 45.751 83.4156 45.758 83.6917C45.977 92.3296 51.8411 99.0437 59.2666 99.0437ZM56.6032 79.1075V31.2795C56.6032 28.4253 58.4951 26.206 60.6577 26.206H65.7931C68.2263 26.206 70.1182 28.4263 70.1182 31.2795V79.1075C70.1182 79.6598 69.6705 80.1075 69.1182 80.1075H57.6032C57.0509 80.1075 56.6032 79.6598 56.6032 79.1075Z"/>
</mask>
<path d="M62.6898 24.1424L61.7457 24.472L62.1293 25.5707L63.1578 25.0261L62.6898 24.1424ZM67.4759 11.247L68.42 10.9175L67.4759 11.247ZM59.6837 15.5308L60.6278 15.2012L59.6837 15.5308ZM64.8043 3.59375L65.7484 3.26417L65.4099 2.29435L64.4495 2.65881L64.8043 3.59375ZM80.8843 83.6917L81.884 83.717V83.717L80.8843 83.6917ZM45.758 83.6917L44.7583 83.717L45.758 83.6917ZM63.1578 25.0261C65.9231 23.5619 67.8377 21.631 68.7432 19.1912C69.6461 16.7585 69.4876 13.9758 68.42 10.9175L66.5318 11.5766C67.4993 14.3482 67.5606 16.6297 66.8682 18.4953C66.1784 20.354 64.6824 21.9558 62.2219 23.2586L63.1578 25.0261ZM58.7396 15.8603L61.7457 24.472L63.634 23.8128L60.6278 15.2012L58.7396 15.8603ZM64.4495 2.65881C61.5541 3.75759 59.4984 5.42326 58.5046 7.73992C57.5168 10.0426 57.6662 12.7855 58.7396 15.8603L60.6278 15.2012C59.6475 12.3928 59.6235 10.2047 60.3426 8.52838C61.0557 6.86604 62.5871 5.50477 65.1591 4.52869L64.4495 2.65881ZM68.42 10.9175L65.7484 3.26417L63.8602 3.92333L66.5318 11.5766L68.42 10.9175ZM67.3756 98.0437H59.2666V100.044H67.3756V98.0437ZM79.8846 83.6664C79.6756 91.912 74.1202 98.0437 67.3756 98.0437V100.044C75.4821 100.044 81.655 92.7472 81.884 83.717L79.8846 83.6664ZM80.3906 84.1904C80.1178 84.1904 79.877 83.9655 79.8846 83.6664L81.884 83.717C81.9055 82.8658 81.2158 82.1904 80.3906 82.1904V84.1904ZM46.2516 84.1904H80.3906V82.1904H46.2516V84.1904ZM46.7577 83.6664C46.7652 83.9655 46.5245 84.1904 46.2516 84.1904V82.1904C45.4265 82.1904 44.7367 82.8658 44.7583 83.717L46.7577 83.6664ZM59.2666 98.0437C52.5221 98.0437 46.9667 91.912 46.7577 83.6664L44.7583 83.717C44.9872 92.7472 51.1601 100.044 59.2666 100.044V98.0437ZM55.6032 31.2795V79.1075H57.6032V31.2795H55.6032ZM60.6577 25.206C57.7617 25.206 55.6032 28.0735 55.6032 31.2795H57.6032C57.6032 28.7772 59.2285 27.206 60.6577 27.206V25.206ZM65.7931 25.206H60.6577V27.206H65.7931V25.206ZM71.1182 31.2795C71.1182 28.0298 68.9224 25.206 65.7931 25.206V27.206C67.5302 27.206 69.1182 28.8228 69.1182 31.2795H71.1182ZM71.1182 79.1075V31.2795H69.1182V79.1075H71.1182ZM69.1182 81.1075C70.2228 81.1075 71.1182 80.2121 71.1182 79.1075H69.1182V81.1075ZM57.6032 81.1075H69.1182V79.1075H57.6032V81.1075ZM55.6032 79.1075C55.6032 80.2121 56.4986 81.1075 57.6032 81.1075V79.1075H55.6032Z" fill="#1352CB" mask="url(#path-2-inside-1_4512_126890)"/>
<path fill-rule="evenodd" clip-rule="evenodd" d="M135.345 13.2118C133.699 17.9281 133.567 21.8912 134.787 25.1783C135.905 28.1897 138.21 30.7759 141.834 32.9013L146.462 19.6418C148.128 14.8703 148.206 11.0462 146.924 8.05626C145.74 5.2969 143.316 3.06004 139.462 1.41899L139.458 1.4315L139.453 1.44457L139.448 1.45773L139.444 1.47099L139.439 1.48435L139.434 1.4978L139.43 1.51134L139.425 1.52499L139.42 1.53873L139.415 1.55256L139.41 1.56649L139.406 1.58052L139.401 1.59465L139.396 1.60887L139.391 1.62319L139.386 1.63761L139.381 1.65213L139.375 1.66674L139.37 1.68146L139.365 1.69627L139.36 1.71117L139.355 1.72618L139.349 1.74129L139.344 1.75649L139.339 1.7718L139.333 1.7872L139.328 1.8027L139.323 1.8183L139.317 1.834L139.312 1.8498L139.306 1.86571L139.3 1.88171L139.295 1.89781L139.289 1.91401L139.283 1.93031L139.278 1.94672L139.272 1.96322L139.266 1.97983L139.26 1.99653L139.254 2.01334L139.249 2.03025L139.243 2.04726L139.237 2.06437L139.231 2.08159L139.225 2.09891L139.219 2.11633L139.212 2.13385L139.206 2.15148L139.2 2.1692L139.194 2.18704L139.188 2.20497L139.181 2.22301L139.175 2.24115L139.169 2.2594L139.162 2.27775L139.156 2.2962L139.149 2.31476L139.143 2.33342L139.136 2.35218L139.13 2.37106L139.123 2.39003L139.116 2.40911L139.11 2.4283L139.103 2.44759L139.096 2.46699L139.089 2.48649L139.082 2.5061L139.076 2.52581L139.069 2.54563L139.062 2.56556L139.055 2.58559L139.048 2.60573L139.041 2.62598L139.033 2.64633L139.026 2.66679L139.019 2.68736L139.012 2.70804L139.005 2.72882L138.997 2.74971L138.99 2.77071L138.983 2.79182L138.975 2.81303L138.968 2.83436L138.96 2.85579L138.953 2.87733L138.945 2.89898L138.938 2.92074L138.93 2.94261L138.922 2.96459L138.915 2.98667L138.907 3.00887L138.899 3.03118L138.891 3.05359L138.883 3.07612L138.876 3.09876L138.868 3.12151L138.86 3.14437L138.852 3.16734L138.844 3.19042L138.835 3.21361L138.827 3.23691L138.819 3.26033L138.811 3.28385L138.803 3.30749L138.794 3.33124L138.786 3.35511L138.778 3.37908L138.769 3.40317L138.761 3.42737L138.752 3.45168L138.744 3.47611L138.735 3.50065L138.727 3.5253L138.718 3.55006L138.709 3.57494L138.701 3.59994L138.692 3.62504L138.683 3.65027L138.674 3.6756L138.665 3.70105L138.656 3.72662L138.647 3.7523L138.638 3.77809L138.629 3.804L138.62 3.83002L138.611 3.85616L138.602 3.88242L138.593 3.90879L138.584 3.93528L138.574 3.96188L138.565 3.9886L138.556 4.01544L138.546 4.04239L138.537 4.06946L138.527 4.09665L138.518 4.12395L138.508 4.15137L138.498 4.17891L138.489 4.20656L138.479 4.23434L138.469 4.26223L138.46 4.29024L138.45 4.31837L138.44 4.34661L138.43 4.37498L138.42 4.40346L138.41 4.43206L138.4 4.46078L138.39 4.48962L138.38 4.51858L138.37 4.54766L138.36 4.57686L138.349 4.60618L138.339 4.63561L138.329 4.66517L138.318 4.69485L138.308 4.72465L138.298 4.75457L138.287 4.78461L138.277 4.81477L138.266 4.84505L138.255 4.87546L138.245 4.90598L138.234 4.93663L138.223 4.9674L138.212 4.99829L138.202 5.0293L138.191 5.06044L138.18 5.09169L138.169 5.12307L138.158 5.15458L138.147 5.1862L138.136 5.21795L138.125 5.24982L138.113 5.28182L138.102 5.31394L138.091 5.34618L138.08 5.37855L138.068 5.41104L138.057 5.44365L138.046 5.47639L138.034 5.50925L138.023 5.54224L138.011 5.57536L137.999 5.60859L137.988 5.64196L137.976 5.67545L137.964 5.70906L137.953 5.7428L137.941 5.77667L137.929 5.81066L137.917 5.84478L137.905 5.87902L137.893 5.91339L137.881 5.94789L137.869 5.98251L137.857 6.01726L137.845 6.05214L137.832 6.08715L137.82 6.12228L137.808 6.15754L137.795 6.19293L137.783 6.22845L137.771 6.26409L137.758 6.29986L137.746 6.33577L137.733 6.3718L137.72 6.40795L137.708 6.44424L137.695 6.48066L137.682 6.5172L137.669 6.55388L137.657 6.59068L137.644 6.62762L137.631 6.66468L137.618 6.70188L137.605 6.7392L137.592 6.77666L137.579 6.81424L137.565 6.85196L137.552 6.88981L137.539 6.92779L137.526 6.9659L137.512 7.00414L137.499 7.04251L137.485 7.08101L137.472 7.11965L137.458 7.15842L137.445 7.19732L137.431 7.23635L137.418 7.27552L137.404 7.31481L137.39 7.35424L137.376 7.39381L137.362 7.4335L137.348 7.47333L137.335 7.5133L137.321 7.55339L137.306 7.59363L137.292 7.63399L137.278 7.67449L137.264 7.71512L137.25 7.75589L137.236 7.79679L137.221 7.83783L137.207 7.879L137.192 7.92031L137.178 7.96175L137.163 8.00333L137.149 8.04504L137.134 8.08689L137.12 8.12888L137.105 8.171L137.09 8.21326L137.075 8.25565L137.061 8.29818L137.046 8.34085L137.031 8.38365L137.016 8.42659L137.001 8.46967L136.986 8.51289L136.97 8.55624L136.955 8.59973L136.94 8.64336L136.925 8.68713L136.909 8.73103L136.894 8.77508L136.879 8.81926L136.863 8.86358L136.848 8.90804L136.832 8.95264L136.816 8.99738L136.801 9.04225L136.785 9.08727L136.769 9.13243L136.754 9.17772L136.738 9.22316L136.722 9.26874L136.706 9.31445L136.69 9.36031L136.674 9.40631L136.658 9.45245L136.641 9.49872L136.625 9.54515L136.609 9.59171L136.593 9.63841L136.576 9.68526L136.56 9.73224L136.543 9.77937L136.527 9.82664L136.51 9.87405L136.494 9.92161L136.477 9.96931L136.46 10.0171L136.444 10.0651L136.427 10.1133L136.41 10.1615L136.393 10.2099L136.376 10.2585L136.359 10.3072L136.342 10.356L136.325 10.405L136.308 10.4542L136.291 10.5034L136.273 10.5529L136.256 10.6024L136.239 10.6521L136.221 10.702L136.204 10.752L136.186 10.8021L136.169 10.8524L136.151 10.9029L136.134 10.9535L136.116 11.0042L136.098 11.0551L136.08 11.1061L136.063 11.1573L136.045 11.2086L136.027 11.26L136.009 11.3116L135.991 11.3634L135.972 11.4153L135.954 11.4674L135.936 11.5196L135.918 11.5719L135.899 11.6244L135.881 11.677L135.863 11.7298L135.844 11.7828L135.826 11.8359L135.807 11.8891L135.788 11.9425L135.77 11.996L135.751 12.0497L135.732 12.1035L135.713 12.1575L135.694 12.2117L135.675 12.2659L135.656 12.3204L135.637 12.375L135.618 12.4297L135.599 12.4846L135.58 12.5396L135.561 12.5948L135.541 12.6501L135.522 12.7056L135.503 12.7613L135.483 12.817L135.464 12.873L135.444 12.9291L135.424 12.9853L135.405 13.0417L135.385 13.0983L135.365 13.155L135.345 13.2118ZM142.387 34.3493C142.084 34.1888 141.788 34.0252 141.5 33.8585C133.5 29.2358 131.137 22.2353 134.41 12.857L138.533 1.04569L138.863 0.101562L138.865 0.102281C139.181 0.22242 139.49 0.346389 139.792 0.474187C148.166 4.02516 150.701 10.5326 147.397 19.9966L142.719 33.3975L142.387 34.3493ZM151.758 42.4319V82.3332H129.431V42.4319C129.431 39.0239 131.559 36.7731 134.108 36.7731H147.082C149.63 36.7731 151.758 39.023 151.758 42.4319ZM152.758 82.3332V42.4319C152.758 38.6263 150.326 35.7731 147.082 35.7731H134.108C130.863 35.7731 128.431 38.6273 128.431 42.4319V82.3332C128.431 82.8855 128.879 83.3332 129.431 83.3332H151.758C152.31 83.3332 152.758 82.8855 152.758 82.3332ZM150.079 98.0963H131.158C126.177 98.0963 121.819 93.5076 121.382 87.4137H159.855C159.418 93.5076 155.06 98.0963 150.079 98.0963ZM131.158 99.0963H150.079C155.882 99.0963 160.656 93.66 160.883 86.9143C160.892 86.6383 160.667 86.4137 160.391 86.4137H120.846C120.57 86.4137 120.345 86.6383 120.354 86.9143C120.58 93.66 125.354 99.0963 131.158 99.0963Z" fill="#1352CB"/>
<mask id="path-5-inside-2_4512_126890" fill="white">
<path fill-rule="evenodd" clip-rule="evenodd" d="M94.2897 11.247C92.2546 17.0769 93.85 21.3754 99.0758 24.1424L102.082 15.5308C104.136 9.64762 102.429 5.66862 96.9613 3.59375L94.2897 11.247ZM102.499 99.0437H94.39C86.9645 99.0437 81.1003 92.3296 80.8813 83.6917C80.8743 83.4156 81.0989 83.1904 81.375 83.1904H115.514C115.79 83.1904 116.015 83.4156 116.008 83.6917C115.789 92.3296 109.925 99.0437 102.499 99.0437ZM105.162 79.1075V31.2795C105.162 28.4253 103.271 26.206 101.108 26.206H95.9726C93.5394 26.206 91.6474 28.4263 91.6474 31.2795V79.1075C91.6474 79.6598 92.0952 80.1075 92.6474 80.1075H104.162C104.715 80.1075 105.162 79.6598 105.162 79.1075Z"/>
</mask>
<path d="M99.0758 24.1424L100.02 24.472L99.6364 25.5707L98.6078 25.0261L99.0758 24.1424ZM94.2897 11.247L93.3456 10.9175L94.2897 11.247ZM102.082 15.5308L101.138 15.2012L102.082 15.5308ZM96.9613 3.59375L96.0172 3.26417L96.3557 2.29435L97.3161 2.65881L96.9613 3.59375ZM80.8813 83.6917L79.8817 83.717V83.717L80.8813 83.6917ZM116.008 83.6917L117.007 83.717L116.008 83.6917ZM98.6078 25.0261C95.8425 23.5619 93.9279 21.631 93.0224 19.1912C92.1195 16.7585 92.278 13.9758 93.3456 10.9175L95.2339 11.5766C94.2664 14.3482 94.205 16.6297 94.8974 18.4953C95.5873 20.354 97.0832 21.9558 99.5437 23.2586L98.6078 25.0261ZM103.026 15.8603L100.02 24.472L98.1317 23.8128L101.138 15.2012L103.026 15.8603ZM97.3161 2.65881C100.211 3.75759 102.267 5.42326 103.261 7.73992C104.249 10.0426 104.099 12.7855 103.026 15.8603L101.138 15.2012C102.118 12.3928 102.142 10.2047 101.423 8.52838C100.71 6.86604 99.1786 5.50477 96.6065 4.52869L97.3161 2.65881ZM93.3456 10.9175L96.0172 3.26417L97.9055 3.92333L95.2339 11.5766L93.3456 10.9175ZM94.39 98.0437H102.499V100.044H94.39V98.0437ZM81.881 83.6664C82.0901 91.912 87.6454 98.0437 94.39 98.0437V100.044C86.2835 100.044 80.1106 92.7472 79.8817 83.717L81.881 83.6664ZM81.375 84.1904C81.6478 84.1904 81.8886 83.9655 81.881 83.6664L79.8817 83.717C79.8601 82.8658 80.5499 82.1904 81.375 82.1904V84.1904ZM115.514 84.1904H81.375V82.1904H115.514V84.1904ZM115.008 83.6664C115 83.9655 115.241 84.1904 115.514 84.1904V82.1904C116.339 82.1904 117.029 82.8658 117.007 83.717L115.008 83.6664ZM102.499 98.0437C109.244 98.0437 114.799 91.912 115.008 83.6664L117.007 83.717C116.778 92.7472 110.606 100.044 102.499 100.044V98.0437ZM106.162 31.2795V79.1075H104.162V31.2795H106.162ZM101.108 25.206C104.004 25.206 106.162 28.0735 106.162 31.2795H104.162C104.162 28.7772 102.537 27.206 101.108 27.206V25.206ZM95.9726 25.206H101.108V27.206H95.9726V25.206ZM90.6474 31.2795C90.6474 28.0298 92.8433 25.206 95.9726 25.206V27.206C94.2355 27.206 92.6474 28.8228 92.6474 31.2795H90.6474ZM90.6474 79.1075V31.2795H92.6474V79.1075H90.6474ZM92.6474 81.1075C91.5429 81.1075 90.6474 80.2121 90.6474 79.1075H92.6474V81.1075ZM104.162 81.1075H92.6474V79.1075H104.162V81.1075ZM106.162 79.1075C106.162 80.2121 105.267 81.1075 104.162 81.1075V79.1075H106.162Z" fill="#1352CB" mask="url(#path-5-inside-2_4512_126890)"/>
</svg>
